<svg width="320" height="198" viewBox="0 0 320 198" fill="none" xmlns="http://www.w3.org/2000/svg">
<path d="M247.718 6.09155V0.831909H268.056V6.09155L254.178 22.8268H268.295V28.0864H247V22.8268L260.878 6.09155H247.718Z" fill="#DEDDDD"/>
<path d="M273.509 34.7209V31.3739H286.669V34.7209L277.816 45.4793H286.909V48.8263H273.031V45.4793L281.884 34.7209H273.509Z" fill="#DEDDDD"/>
<g clip-path="url(#clip0_1_898)">
<g opacity="0.45">
<rect x="246.453" y="99.8958" width="19.845" height="97.335" fill="#DEDDDD"/>
<rect x="190.698" y="142.421" width="19.845" height="54.81" fill="#DEDDDD"/>
<path d="M210.543 65.8758L228.498 50.7558L246.453 65.8758V197.231H210.543V65.8758Z" fill="#DEDDDD"/>
<rect x="216.213" y="70.6008" width="10.395" height="25.515" fill="white"/>
<rect x="216.213" y="99.8958" width="10.395" height="25.515" fill="white"/>
<rect x="216.213" y="129.191" width="10.395" height="25.515" fill="white"/>
<rect x="230.388" y="70.6008" width="10.395" height="25.515" fill="white"/>
<rect x="230.388" y="99.8958" width="10.395" height="25.515" fill="white"/>
<rect x="230.388" y="129.191" width="10.395" height="25.515" fill="white"/>
<rect x="216.213" y="159.431" width="24.57" height="37.8" fill="white"/>
<rect x="86.7483" y="65.8757" width="26.46" height="131.355" fill="#DEDDDD"/>
<rect x="91.4733" y="58.3158" width="17.01" height="7.56" fill="#DEDDDD"/>
<path d="M94.3083 50.7558L99.9783 46.5033L105.648 50.7558V58.3158H94.3083V50.7558Z" fill="#DEDDDD"/>
<path d="M113.208 112.181L139.668 127.301V197.231H113.208V112.181Z" fill="#DEDDDD"/>
</g>
<path d="M15.3895 196.785H275.398" stroke="#DEDDDD" stroke-width="1.89" stroke-miterlimit="10"/>
<path d="M284.503 196.785H316.637" stroke="#DEDDDD" stroke-width="1.89" stroke-miterlimit="10"/>
<rect x="108.054" y="128.293" width="28.5173" height="11.8822" fill="#C0C0C0"/>
<rect x="98.5487" y="118.788" width="133.081" height="9.50576" fill="#DDDDDD"/>
<path d="M91.7885 109.876L165.458 57L239.128 109.876V119.382H91.7885V109.876Z" fill="#CCC8C8"/>
<path d="M122.682 103.85L165.458 73.6351L208.234 103.85V109.282H122.682V103.85Z" fill="#E9E9E9"/>
<rect x="91.4194" y="188.893" width="147.339" height="8.31754" fill="#DBD7D7"/>
<rect x="108.054" y="175.822" width="28.5173" height="13.0704" fill="#C0C0C0"/>
<rect x="113.996" y="140.175" width="16.6351" height="35.6466" fill="#D2CFCF"/>
<rect x="193.606" y="128.293" width="28.5173" height="11.8822" fill="#C0C0C0"/>
<rect x="199.547" y="140.175" width="16.6351" height="35.6466" fill="#D2CFCF"/>
<rect x="193.606" y="175.822" width="28.5173" height="13.0704" fill="#C0C0C0"/>
</g>
<path d="M62.8294 118.073C62.8294 118.073 59.1352 116.686 57.2903 123.605C55.4454 130.525 49.9062 129.16 48.5203 137.016C47.1344 144.873 48.9617 152.729 47.5979 156.423C46.234 160.117 42.0587 166.144 45.2895 173.524C48.5203 180.903 55.9044 185.538 66.0602 182.763C76.2161 179.988 85.9218 180.916 87.29 164.744C88.6583 148.571 75.2892 152.265 75.7527 145.337C76.2161 138.408 83.1368 136.093 78.061 129.624C72.9853 123.155 69.2911 125.002 66.9827 120.844C64.6744 116.686 62.8294 118.073 62.8294 118.073Z" fill="#DEDDDD"/>
<path d="M64.5535 196.753L64.2727 123.397H64.0255L61.9121 196.893L64.5535 196.753Z" fill="#F5F5F5"/>
<path d="M62.4233 178.207L46.1854 166.135L63.4076 176.484L62.4233 178.207Z" fill="#F5F5F5"/>
<path d="M63.6635 154.978L51.601 146.012L64.3962 153.696L63.6635 154.978Z" fill="#F5F5F5"/>
<path d="M64.3963 169.586L80.6342 157.514L63.4076 167.859L64.3963 169.586Z" fill="#F5F5F5"/>
<path d="M64.5464 141.651L75.2186 133.72L63.902 140.516L64.5464 141.651Z" fill="#F5F5F5"/>
<defs>
<clipPath id="clip0_1_898">
<rect width="318.758" height="196.659" fill="white" transform="translate(0.621094 0.670746)"/>
</clipPath>
</defs>
</svg>
