<svg width="24" height="24" viewBox="0 0 24 24" fill="none" xmlns="http://www.w3.org/2000/svg">
<path d="M12.6116 6.67128L9.43531 9.15373C8.90703 9.56536 8.80531 10.3063 9.20563 10.8351C9.62891 11.3987 10.4525 11.5095 11.0202 11.0821L14.2784 8.63761C14.5081 8.46662 14.8362 8.50462 15.0167 8.72627C15.1972 8.94792 15.1545 9.26456 14.9248 9.43871L14.2391 9.95167L20.0534 15.1192H21.425C22.2945 15.1192 23 14.4385 23 13.5994V9.54637C23 8.70727 22.2945 8.02649 21.425 8.02649H18.777L18.6491 7.94734L16.2669 6.47496C15.7648 6.16465 15.1775 6 14.5803 6C13.865 6 13.1694 6.23748 12.6116 6.67128ZM13.3597 10.6103L11.6633 11.8832C10.6297 12.6621 9.13016 12.4595 8.35578 11.4335C7.62734 10.4678 7.81109 9.1189 8.7725 8.36847L11.5025 6.23748C11.1219 6.08233 10.7117 6.00317 10.295 6.00317C9.67812 6 9.07766 6.17732 8.5625 6.50662L6.2 8.02649H3.575C2.70547 8.02649 2 8.70727 2 9.54637V13.5994C2 14.4385 2.70547 15.1192 3.575 15.1192H7.12531L10.1244 17.76C10.7675 18.3268 11.7617 18.2825 12.3491 17.6618C12.5295 17.4687 12.6509 17.2439 12.7133 17.0096L13.2711 17.5035C13.9109 18.0703 14.9084 18.0291 15.4958 17.4117C15.6434 17.2565 15.7517 17.0761 15.8206 16.8892C16.4572 17.3009 17.3234 17.2154 17.8583 16.6518C18.4456 16.0343 18.403 15.0717 17.7631 14.5049L13.3597 10.6103Z" fill="white"/>
</svg>
